/* XPM */
static char * terro_dead_xpm[] = {
"54 54 177 2",
"  	c #9E9E9E",
". 	c #9A9A9A",
"+ 	c #9B9B9B",
"@ 	c #989898",
"# 	c #999999",
"$ 	c #9C9C9C",
"% 	c #979797",
"& 	c #959595",
"* 	c #969696",
"= 	c #949494",
"- 	c #9F9F9F",
"; 	c #4F4F4F",
"> 	c #515151",
", 	c #505050",
"' 	c #525252",
") 	c #4E4E4E",
"! 	c #565656",
"~ 	c #4C4C4C",
"{ 	c #555555",
"] 	c #4D4D4D",
"^ 	c #535353",
"/ 	c #474747",
"( 	c #404040",
"_ 	c #3E3E3E",
": 	c #494949",
"< 	c #424242",
"[ 	c #434343",
"} 	c #3F3F3F",
"| 	c #4A4A4A",
"1 	c #414141",
"2 	c #3C3C3C",
"3 	c #3D3D3D",
"4 	c #3B3B3B",
"5 	c #353535",
"6 	c #4B4B4B",
"7 	c #444444",
"8 	c #5A5A5A",
"9 	c #323232",
"0 	c #303030",
"a 	c #313131",
"b 	c #393939",
"c 	c #3A3A3A",
"d 	c #383838",
"e 	c #464646",
"f 	c #2C2C2C",
"g 	c #272727",
"h 	c #282828",
"i 	c #252525",
"j 	c #373737",
"k 	c #363636",
"l 	c #545454",
"m 	c #454545",
"n 	c #222222",
"o 	c #202020",
"p 	c #212121",
"q 	c #2A2A2A",
"r 	c #2E2E2E",
"s 	c #343434",
"t 	c #484848",
"u 	c #1E1E1E",
"v 	c #232323",
"w 	c #292929",
"x 	c #333333",
"y 	c #171717",
"z 	c #1D1D1D",
"A 	c #2D2D2D",
"B 	c #2B2B2B",
"C 	c #2F2F2F",
"D 	c #151515",
"E 	c #191919",
"F 	c #262626",
"G 	c #242424",
"H 	c #141414",
"I 	c #1C1C1C",
"J 	c #181818",
"K 	c #121212",
"L 	c #101010",
"M 	c #131313",
"N 	c #1A1A1A",
"O 	c #1F1F1F",
"P 	c #1B1B1B",
"Q 	c #7F7F7F",
"R 	c #666666",
"S 	c #5B5B5B",
"T 	c #6C6C6C",
"U 	c #787878",
"V 	c #161616",
"W 	c #0F0F0F",
"X 	c #080808",
"Y 	c #0D0D0D",
"Z 	c #0E0E0E",
"` 	c #636363",
" .	c #9D9D9D",
"..	c #606060",
"+.	c #7A7A7A",
"@.	c #777777",
"#.	c #808080",
"$.	c #878787",
"%.	c #828282",
"&.	c #0A0A0A",
"*.	c #919191",
"=.	c #0B0B0B",
"-.	c #090909",
";.	c #111111",
">.	c #6A6A6A",
",.	c #B9B9B9",
"'.	c #6D6D6D",
").	c #B7B7B7",
"!.	c #929292",
"~.	c #909090",
"{.	c #B8B8B8",
"].	c #060606",
"^.	c #070707",
"/.	c #0C0C0C",
"(.	c #848484",
"_.	c #B6B6B6",
":.	c #A3A3A3",
"<.	c #B4B4B4",
"[.	c #ABABAB",
"}.	c #B1B1B1",
"|.	c #626262",
"1.	c #8F8F8F",
"2.	c #030303",
"3.	c #050505",
"4.	c #898989",
"5.	c #7E7E7E",
"6.	c #B2B2B2",
"7.	c #A8A8A8",
"8.	c #B5B5B5",
"9.	c #6B6B6B",
"0.	c #AFAFAF",
"a.	c #888888",
"b.	c #AAAAAA",
"c.	c #646464",
"d.	c #A6A6A6",
"e.	c #747474",
"f.	c #797979",
"g.	c #686868",
"h.	c #939393",
"i.	c #5D5D5D",
"j.	c #A5A5A5",
"k.	c #6E6E6E",
"l.	c #585858",
"m.	c #BABABA",
"n.	c #B0B0B0",
"o.	c #737373",
"p.	c #868686",
"q.	c #858585",
"r.	c #5F5F5F",
"s.	c #717171",
"t.	c #B3B3B3",
"u.	c #696969",
"v.	c #676767",
"w.	c #8D8D8D",
"x.	c #757575",
"y.	c #6F6F6F",
"z.	c #A0A0A0",
"A.	c #A2A2A2",
"B.	c #838383",
"C.	c #A1A1A1",
"D.	c #5E5E5E",
"E.	c #727272",
"F.	c #AEAEAE",
"G.	c #ADADAD",
"H.	c #8C8C8C",
"I.	c #5C5C5C",
"J.	c #A7A7A7",
"K.	c #575757",
"L.	c #8A8A8A",
"M.	c #A9A9A9",
"N.	c #767676",
"O.	c #A4A4A4",
"P.	c #7B7B7B",
"Q.	c #707070",
"R.	c #8E8E8E",
"S.	c #616161",
"T.	c #656565",
"  . + @ # # # # # # # # # # # # # # # # . . . . . . . . . . . . . . . . . . . . . . . . . $ % + # & * $ + + ",
"% $ = $ + + + + + + + + + + + + + + + + # # # # # # @ # @ # @ # # # # # @ @ @ . . . . . % + + % % - $ & @ # ",
"# . ; > ; ; , ; , ; , ; , ; , ; , ; ; ; , , , , , , , , , , , , , , , , , , , , , , , , ' ) ; , ! ~ ) ' . . ",
"% % > , , > > > > > > > > > > > > > > > , , , , , , , , , , , , , , , , , , , , , , , , , > ; { ] ; { ) # # ",
"# # , , , , , , , , , , , , , , , , , , ; > > ) ^ ] ; ; ; > > ; ; > > ; , , , , , , , , , , > > , , , , + . ",
"# # ; , , , , , , , , , , , , , , , , , , ; > ) , ; / ; ; , , , , > , ; , , , , , , , , , , > > , , , , # + ",
"# . ; , , , , , , , , , , , , , , , , , ' , > > ; , ( ] , , , > > > > , > > > > > > > > > > > > > > > , # $ ",
"# # , , , > > > > > > > > > > > > > > > ' > , > > ~ _ : ' > , ' ' > , ' > > > > > > > > > > > > > > > , + . ",
"# # ; , > > > > > > > > > > > > > > > > ; ' ) , ^ < ( < ' ' , ' > , > ' > > > > > > > > > > > > > > , , # # ",
". . , , , , , , , , , , , , , , , , , > ; ^ ; > > _ [ } ) > ' > , , ' ' > > > > > > > > > > > > > > , , . . ",
". . , , , , , , , , , , , , , , , , , , > ' , ' | } [ } / ) ^ , ; > > > , , , , , , , , , , , , , , , ; + . ",
". . , , , , , , , , , , , , , , , , , , , ) , , ( } } } < ~ ' , ) , > ; , , , , , , , , , , , , , ; ; ; . % ",
". # ; , , , , , , , , , , , , ; ; ; ; , ; ) > ] ( 1 2 1 3 ! { / < 4 1 5 | > ) , ) ^ 6 , , , , , , , ; ; . @ ",
". # ) ; ; ; ; ; ; ; ; ; ) ) ] / < _ } 1 7 1 2 ( 3 3 1 8 9 0 9 9 5 a b c b _ ) ' ] ] > ; ; ; ; ; ; ; ; ; . + ",
". # ) ; ) ) ) ) ) ) ) ) ] ; , ] / 1 3 2 d 1 2 2 e 4 f g h i a a 5 4 _ d j a k l , ; : > ) ) ) ) ) ) ) ) # + ",
". # ) ) ] ] ] ] ] ] ] ] ] ~ ] ; ; ~ m ( < < } 4 ( n o p q r b 9 r b m b a s 9 a ] ; ; : ] ] ] ) ] ] ) ) # # ",
". # ~ ~ ] ] ] ] ] ] ] ] , ] | | ] ] | t 3 4 2 ( 9 u o o v w s 4 k 0 3 k f b q f x m | ; ~ ] ] ] ] ] ] ] . @ ",
". # ~ 6 ~ ~ ~ ~ ~ ~ ~ ~ ] ] ] ] ~ ~ ~ ] | m b c y p n z A r B 0 s f 3 ( d f r A C A 6 ) ~ ~ ~ ~ ~ ~ ~ ~ . @ ",
". # ~ 6 6 6 6 6 6 6 6 6 e : 6 ~ 6 | | 6 ; m 3 } D E u f F C A f j 9 5 j j x C C G 9 ~ m 6 6 6 6 6 6 ~ ~ @ @ ",
". # ~ | : | | | | | | | ~ | t : 6 6 6 | : _ c B H I n G i f r q d 9 f b 9 a r B f f / | : : | : | | | | . # ",
"# + t | t e t | t / t | t t t t t t t t / ( 5 D y u f f 0 a C G b j a A 5 s a q 0 n [ t e 6 : 1 ~ t t t . % ",
"@ + e / : [ _ 1 e : t e t t / t t t t t [ s 2 J K L I p j w s 0 B 9 5 9 c r 9 5 v n p / t / < 2 / / t : # $ ",
"# + m e / [ d d [ t e m e e e e e e e / _ b v D D J k G u 0 B C f r 5 G d k d r B p [ 7 7 ( c j 7 m e : # + ",
". + m m [ m 4 s 4 ( 1 m 7 7 7 m m m m 7 d 5 J D y r _ b 9 v w f w r r b 5 9 a x F G e 1 4 b k c m m 7 m # @ ",
"# . [ < 1 e _ s 5 j b 1 < [ [ 7 [ [ < 1 5 b M J J i 4 { b a G v 0 v N w E u i F p J [ d s k j ( 7 m [ [ # # ",
"# . < 1 < 7 _ j 5 x x d } ( < < [ < ( } 4 7 K M O N 5 ( 4 s y n v I a K x t F p g O 9 k 9 k c < 1 7 < < . @ ",
". . < ( 1 ( } 2 j x a x d c 3 } 1 1 ( } ( } I L o i P H J O g G E o 7 Q R 4 w u I E j a s b 3 < _ < 1 ( . % ",
"# @ ( _ _ _ 1 1 c x 9 x 0 x j 2 } ( } } 3 1 H y E o g n p w r C A a q S T U G O O n x 5 5 4 _ < 3 1 } _ @ . ",
". + 3 _ 3 3 2 _ _ c s C a 9 9 9 k 4 _ 3 2 } K D z V G G J F a s r 9 0 u I P v o P z 0 x 3 3 3 _ _ _ _ _ % $ ",
"+ # 2 2 2 4 4 2 2 4 j 5 r C 0 0 0 9 j 3 b c P L J u P P n u h C w q s a v h v F p q j 5 4 2 2 2 2 2 2 2 . * ",
"@   2 j c c c c 4 4 c b x C A r C C 9 k 2 2 V D N D E I N O i A v h g C O B p n V x j _ c c c c c 4 4 4   * ",
"@ + k b b b b b d b d b b x r A A r A A A c V W H y n O X X D Y q i h h G o O M z 2 j b b b b b b b b b @ . ",
"+ @ s b k j j j j k j j s j 5 C B B f q C F V M D K W h e / _ 9 u p O G g I F u s 5 j j j j k j j j j j . @ ",
"% + b s s 5 5 5 5 s 5 5 s j k 0 C 9 0 q B f P Z W H J A 0 f : ` 2 E I u F n N 5 j x x j 5 5 5 5 5 5 5 5  .* ",
"= + 5 x x x x x x x x x k 5 x a s j x A h q H D V K u k 4 ..+.@.0 E i u G p O 5 9 4 9 a x x x x s x s s * # ",
"# - f s s x 9 9 x x x 9 a x x x x 9 a a w B G D K y Y n : / e e } I G y E z ' 9 s C s s 9 9 9 9 9 9 9 x $ @ ",
"$ # 0 a C a x C x C C x r s f x a a r g C 2 a Z H y E D H f w C u O n u N Z #.$.C r k r C 9 x f x x a a . # ",
"$ @ C 0 s f 0 C C j r 0 s f 9 a r s A C r ( n L K D L y n M i n u p h E K Y 6 %.5 0 r 0 s 0 f x r q x r . # ",
"+ @ r r A q 9 a f C f f r w r r r A C f A e F Y &.K E J Z W o O E u y M W H 0 l *.i 9 r A h a B 9 9 A C . # ",
". @ f f C A B w r w x r f 0 9 f A %.0 f f > } W H =.-.&.=.V Z D ;.M &.Y I J g >.$ ,.3 '.).!.0 w A f r A . # ",
". # f f h r r f C w h q q C ~.,.,.{.~.'.C 9 !.Z ].J =.Z =.X ^.Z /.^.L M J N n +.(.,._.:.).<.,.,.).C g r . # ",
". . B B B f A B w C g C *.[.,.,.,.,.}.& |.i c 1.].2.=.X Z W Z &.3.W y o v y I 4.5.,.6.{.{.7.8.8.,.).f h # # ",
". . q w A w w B B g a F _ ,.{.,. .9.0.a.b.! i 2 :.7 -.3.].&.=.;.W J I D ) r c.d.+.8.e.f.7 ).<.<.g.h.i.q . . ",
". . w w h f B g f f *.. j.k.%.l.m.,.{.n.o.@ } q , p.q.q h &.Z E y M r.i.' 9   } s.b.^ ~ {.  6.m._.,.t.g # # ",
"$ % q w h A i g A 5 9 %.S % ,.,.m.{.m.,.,.a.u.v q r.Q #.$ 8 '.9.o.o.'.R ~ T e.M l [.^ : ).,.,.<._.t.v.w.@ . ",
"$ % B g q F B ~ T x.f.3 y.f $.z.m.m._.,.A.B.C.j w 0 c.k.D.E.D.s.o.o.y...A x.I x l.F.> 8 a.,.).,.{.C.G.:.# . ",
"$ . r F B i T S k.$.%.! ,.w.a G.t.,.,._.n.n.E.q.u q 0 ~ O w '.l...|.8 1 R | =.f % b.|.'.% {.z.,.,.G.m.{.# + ",
"$ # B i 2 k.H.@ @.w.p.Q + <.4 !.t.,.}.:.z.z.H.. R N G > y n D.[ e < x i.I.F 0 P n.J.%.'.d.).,.).& F.6.,.. + ",
". % g r R s.h.(.1.Q B.'.C _.:.5 d.6.8.).t.n._...j.s.u a &.y w l.9 5 K.7 r < } R 6.L.& % 0.M.,.C.F.j.,.,.. . ",
". . q t Q N.(.p.h.%.o.s.! ,.0.x 7._.<.. 0.<. .O.S 0.A.g E V N B ^ 2 t ; 4 t 4 ,.[.T x.7.M.L.7.}.F.P.0.# . . ",
"+ $ f ..9.x.f.@ h.*.r.Q.] +._...g.C.. F.O. .d.. P.I.7.6.t.o N K D h [ : 3 j.,.,.u.C.$ R.f.S.,.A.@.d ,.s.. + ",
"# @ i T.s.B.4.!.h.& 5.+.T.} 8.F.2 4.R.+.).h.>.0.B.@ L.+.,._.b.{.,.<.,.,.{._.M.F.1.a.(.O.- % R.e.) ) ,.I.. + ",
"$ @ . # . . # # # # # # # # # # . . . . . . . . # # # # # # . . # # # # # . . . . + + + . . . . # . # # @ @ ",
"+ # + . @ # # # # # # # # # # # # . . . # # # . . # # # # # # # # # # # # # # # # # . . . . . # # # # @ + # "};
